<svg width="48" height="34" viewBox="0 0 48 34" fill="none" xmlns="http://www.w3.org/2000/svg">
<path d="M1.59596 30.2171V28.1049L0 24.7427H0.92398L2.01596 27.2428L3.10793 24.7427H3.98991L2.39395 28.1049V30.2171H1.59596ZM5.83787 29.6998C6.08987 29.6998 6.25786 29.6567 6.42586 29.5274C6.55186 29.3981 6.63585 29.2257 6.63585 29.0533C6.63585 28.8808 6.55186 28.7084 6.42586 28.5791C6.29986 28.4498 6.08987 28.4067 5.83787 28.4067C5.62788 28.4067 5.41788 28.4498 5.29188 28.5791C5.16589 28.7084 5.08189 28.8808 5.08189 29.0533C5.08189 29.2257 5.16589 29.3981 5.29188 29.5274C5.41788 29.6136 5.58588 29.6998 5.83787 29.6998ZM7.34984 27.7601V30.174H6.71985L6.67785 29.7861C6.42586 30.0878 6.08987 30.2171 5.62788 30.2171C5.20788 30.2171 4.87189 30.0878 4.6619 29.8723C4.4099 29.6567 4.28391 29.355 4.28391 29.0102C4.28391 28.6653 4.4099 28.3636 4.6619 28.1049C4.91389 27.8894 5.24988 27.7601 5.66987 27.7601C6.04787 27.7601 6.38386 27.8894 6.59385 28.1049V27.7601C6.59385 27.4584 6.50986 27.1997 6.34186 27.0273C6.17386 26.8549 5.96387 26.7687 5.66987 26.7687C5.50188 26.7687 5.33388 26.7687 5.16589 26.8118C4.99789 26.8549 4.87189 26.898 4.82989 26.9411L4.7039 26.9842L4.4939 26.3376C4.5359 26.2945 4.5779 26.2945 4.6619 26.2514C4.7459 26.2083 4.87189 26.1652 5.08189 26.1221C5.29188 26.079 5.54388 26.0359 5.79587 26.0359C6.29986 26.0359 6.67785 26.1652 6.92985 26.4669C7.22384 26.8549 7.34984 27.2428 7.34984 27.7601ZM9.2398 25.2169V26.2083H10.3318V26.8118H9.2398V29.0102C9.2398 29.355 9.40779 29.5274 9.74378 29.5274C9.82778 29.5274 9.86978 29.5274 9.95378 29.5274C10.0378 29.5274 10.0798 29.5274 10.1218 29.4843H10.2058L10.2898 30.1309C10.0798 30.2171 9.82778 30.2602 9.49179 30.2602C9.1558 30.2602 8.9038 30.174 8.73581 29.9585C8.56781 29.7861 8.44181 29.4843 8.44181 29.1395V26.7687H7.85383V26.1652H8.44181V25.1738H9.2398V25.2169ZM11.0038 30.2171V26.2083H11.8017V30.2171H11.0038ZM11.0458 24.7427C11.1298 24.6565 11.2558 24.5703 11.4237 24.5703C11.5917 24.5703 11.6757 24.6134 11.8017 24.6996C11.8857 24.7858 11.9697 24.9152 11.9697 25.0876C11.9697 25.2169 11.9277 25.3462 11.8017 25.4755C11.7177 25.5617 11.5917 25.6048 11.4237 25.6048C11.2558 25.6048 11.1718 25.5617 11.0458 25.4324C10.9618 25.3462 10.9198 25.2169 10.9198 25.0445C10.9198 24.9583 10.9618 24.8289 11.0458 24.7427ZM13.5237 27.7601V30.2171H12.7677V26.2083H13.4397L13.4817 26.7256C13.6917 26.3376 14.0697 26.1221 14.5317 26.1221C15.0777 26.1221 15.4137 26.3807 15.5817 26.8549C15.7917 26.3807 16.1696 26.1221 16.7156 26.1221C17.0936 26.1221 17.3876 26.2514 17.5976 26.5101C17.8076 26.7687 17.9336 27.1135 17.9336 27.5877V30.174H17.1776V27.7601C17.1776 27.1135 16.9676 26.8118 16.5056 26.8118C16.2956 26.8118 16.0856 26.898 15.9596 27.0273C15.8336 27.1997 15.7497 27.4153 15.7497 27.717V30.1309H14.9517V27.717C14.9517 27.0704 14.7417 26.7687 14.2797 26.7687C14.0697 26.7687 13.9017 26.8549 13.7337 26.9842C13.6077 27.1997 13.5237 27.4584 13.5237 27.7601ZM22.5535 29.355L21.3775 26.4238V30.174H20.6215V24.7427H21.4195L22.7635 28.1049L24.0655 24.7427H24.8635V30.174H24.1075V26.3376L22.9315 29.3119L22.5535 29.355ZM27.2154 29.6998C27.4674 29.6998 27.6354 29.6567 27.8034 29.5274C27.9294 29.3981 28.0134 29.2257 28.0134 29.0533C28.0134 28.8808 27.9294 28.7084 27.8034 28.5791C27.6774 28.4498 27.4674 28.4067 27.2154 28.4067C27.0054 28.4067 26.7954 28.4498 26.6694 28.5791C26.5434 28.7084 26.4594 28.8808 26.4594 29.0533C26.4594 29.2257 26.5434 29.3981 26.6694 29.5274C26.8374 29.6136 27.0054 29.6998 27.2154 29.6998ZM28.7694 27.7601V30.174H28.1394L28.0974 29.7861C27.8454 30.0878 27.5094 30.2171 27.0474 30.2171C26.6274 30.2171 26.2914 30.0878 26.0814 29.8723C25.8294 29.6567 25.7034 29.355 25.7034 29.0102C25.7034 28.6653 25.8294 28.3636 26.0814 28.1049C26.3334 27.8894 26.6694 27.7601 27.0894 27.7601C27.4674 27.7601 27.8034 27.8894 28.0134 28.1049V27.7601C28.0134 27.4584 27.9294 27.1997 27.7614 27.0273C27.5934 26.8549 27.3834 26.7687 27.0894 26.7687C26.9214 26.7687 26.7534 26.7687 26.5854 26.8118C26.4174 26.8549 26.2914 26.898 26.2494 26.9411L26.1234 26.9842L25.9134 26.3376C25.9554 26.2945 25.9974 26.2945 26.0814 26.2514C26.1654 26.2083 26.2914 26.1652 26.5014 26.1221C26.7114 26.079 26.9634 26.0359 27.2154 26.0359C27.7194 26.0359 28.0974 26.1652 28.3494 26.4669C28.6434 26.8549 28.7694 27.2428 28.7694 27.7601ZM29.6513 30.2171V26.2083H30.3233L30.3653 26.7256C30.6173 26.3376 30.9533 26.1221 31.4573 26.1221C31.8353 26.1221 32.1293 26.2514 32.3393 26.5101C32.5493 26.7687 32.6753 27.1135 32.6753 27.6308V30.2171H31.8773V27.8032C31.8773 27.1566 31.6253 26.8549 31.1633 26.8549C30.9533 26.8549 30.7433 26.9411 30.6173 27.0704C30.4913 27.2428 30.4073 27.4584 30.4073 27.7601V30.174H29.6513V30.2171ZM35.7832 28.7084V27.717C35.7832 27.4584 35.6992 27.2428 35.5732 27.0704C35.4472 26.898 35.2372 26.8118 35.0272 26.8118C34.7752 26.8118 34.6072 26.898 34.4392 27.0704C34.3132 27.2428 34.2292 27.4584 34.2292 27.717V28.7084C34.2292 28.9671 34.3132 29.1826 34.4392 29.355C34.5652 29.5274 34.7752 29.5705 35.0272 29.5705C35.2792 29.5705 35.4472 29.4843 35.5732 29.355C35.6992 29.1826 35.7832 28.9671 35.7832 28.7084ZM36.5812 24.7427V30.174H35.9092L35.8252 29.743C35.6152 30.0878 35.2372 30.3033 34.7752 30.3033C34.3552 30.3033 34.0192 30.174 33.8093 29.9154C33.5573 29.6567 33.4733 29.3119 33.4733 28.8377V27.6308C33.4733 27.1566 33.5993 26.8118 33.8512 26.5532C34.1032 26.2945 34.4392 26.1652 34.8592 26.1652C35.2792 26.1652 35.6152 26.2945 35.8252 26.5963V24.7858H36.5812V24.7427ZM37.5052 30.2171V26.2083H38.3032V30.2171H37.5052ZM37.5472 24.7427C37.6312 24.6565 37.7572 24.5703 37.9252 24.5703C38.0512 24.5703 38.1772 24.6134 38.3032 24.6996C38.3871 24.7858 38.4711 24.9152 38.4711 25.0876C38.4711 25.2169 38.4291 25.3462 38.3032 25.4755C38.2192 25.5617 38.0932 25.6048 37.9252 25.6048C37.7992 25.6048 37.6732 25.5617 37.5472 25.4324C37.4632 25.3462 37.4212 25.2169 37.4212 25.0445C37.3792 24.9583 37.4632 24.8289 37.5472 24.7427ZM39.2691 30.2171V26.2083H39.9411L39.9831 26.898C40.2351 26.3807 40.6551 26.1652 41.2851 26.1652V26.9842H40.9911C40.6971 26.9842 40.4871 27.0704 40.3191 27.2859C40.1511 27.5015 40.0671 27.7601 40.0671 28.1481V30.2602H39.2691V30.2171ZM41.8731 30.2171V26.2083H42.6711V30.2171H41.8731ZM41.9151 24.7427C41.9991 24.6565 42.1251 24.5703 42.2931 24.5703C42.4191 24.5703 42.5451 24.6134 42.6711 24.6996C42.7551 24.7858 42.8391 24.9152 42.8391 25.0876C42.8391 25.2169 42.7971 25.3462 42.6711 25.4755C42.5871 25.5617 42.4611 25.6048 42.2931 25.6048C42.1671 25.6048 42.0411 25.5617 41.9151 25.4324C41.8311 25.3462 41.7891 25.2169 41.7891 25.0445C41.7471 24.9583 41.7891 24.8289 41.9151 24.7427Z" fill="white"/>
<path d="M42.7975 0V19.4836C42.7975 21.294 41.3696 22.8027 39.6056 22.8458C39.5636 22.8458 39.5636 22.8458 39.5216 22.8458C39.4796 22.8458 39.4796 22.8458 39.4376 22.8458C37.6736 22.8027 36.2457 21.3371 36.2457 19.4836V10.5608L31.9198 15.8197L27.5519 10.6039V19.9147C27.5519 21.8544 26.4599 22.8458 24.2759 22.8458H21V4.09501C23.4779 0.948317 24.0239 0.689685 25.9139 0.689685C25.9979 0.689685 26.0399 0.689685 26.1239 0.689685H26.5859C26.8379 0.862106 27.0899 1.12074 27.2999 1.37937L31.9198 7.02617L36.4977 1.37937C37.2116 0.474159 38.2196 0 39.5216 0H42.7975Z" fill="white"/>
<path d="M24.276 0C25.62 0.0431053 25.872 0.344843 26.124 0.431053C26.04 0.431053 25.998 0.431053 25.914 0.431053C23.73 0.431053 23.1001 1.03453 20.7481 4.0519C18.4382 7.37101 15.9182 10.647 13.5243 13.9661V19.3974C13.5243 21.1647 12.1383 22.6303 10.4583 22.7596H7.01441C7.01441 19.8284 7.01441 16.8973 7.01441 13.9661L0.714547 5.38816C-0.419428 3.87948 -0.125434 1.76732 1.30253 0.689685C1.89052 0.258632 2.56251 0 3.27649 0C4.28447 0 5.25045 0.474158 5.88043 1.33626L10.2483 7.24169L14.5742 1.33626C15.2042 0.474158 16.2122 0 17.1782 0C17.2202 0 17.2622 0 17.3042 0H24.276Z" fill="white"/>
</svg>
